<svg xmlns="http://www.w3.org/2000/svg" viewBox="0 0 24 24" fill="none" stroke="#8c7568" stroke-width="1.8" stroke-linecap="round" stroke-linejoin="round"><path d="M20.5 11.7a8.5 8.5 0 0 1-12.6 7.4L3 20.5l1.4-4.7A8.5 8.5 0 1 1 20.5 11.7Z"/><path d="M8.2 7.8c.2-.4.4-.4.7-.4h.5c.2 0 .4.1.5.4l.8 2c.1.3 0 .5-.2.7l-.7.8c-.2.2-.1.4 0 .6.6 1 1.5 1.9 2.6 2.4.2.1.4.1.6-.1l.8-1c.2-.2.4-.3.7-.2l2 .9c.3.1.4.3.4.6 0 .8-.4 1.6-1 2.1-.6.5-1.5.7-2.3.5-2.3-.6-4.4-2-5.8-3.9-1-1.3-1.6-2.8-1.5-3.9 0-.7.3-1.1.6-1.5Z"/></svg>
